<svg version="1.2" xmlns="http://www.w3.org/2000/svg" viewBox="0 0 1198 810" width="1198" height="810">
	<title>NYGC_logo-ai</title>
	<style>
		.s0 { fill: #929497 } 
		.s1 { fill: #236db5 } 
		.s2 { fill: #b8ae98 } 
		.s3 { fill: #5a4b42 } 
		.s4 { fill: #7ec4de } 
		.s5 { fill: #003059 } 
		.s6 { fill: #3a679f } 
		.s7 { fill: #a2d5ed } 
		.s8 { fill: #de4026 } 
		.s9 { fill: #cb5527 } 
		.s10 { fill: #f27239 } 
		.s11 { fill: #e78327 } 
		.s12 { fill: #bf1e2d } 
		.s13 { fill: #7f0814 } 
		.s14 { fill: #e43026 } 
		.s15 { fill: #f7951f } 
		.s16 { fill: #f69220 } 
		.s17 { fill: #ffe66f } 
		.s18 { fill: #fbaf17 } 
		.s19 { fill: #ffe438 } 
		.s20 { fill: #009445 } 
		.s21 { fill: #004621 } 
		.s22 { fill: #74b64a } 
		.s23 { fill: #75b74a } 
		.s24 { fill: #004e26 } 
		.s25 { fill: #006838 } 
		.s26 { fill: #b9d65f } 
		.s27 { fill: #1a1a1a } 
		.s28 { fill: #cccccc } 
		.s29 { fill: #666666 } 
	</style>
	<g id="BACKGROUND">
	</g>
	<g id="LOGOS">
		<g id="&lt;Group&gt;">
			<path id="&lt;Compound Path&gt;" class="s0" d="m10.8 557.3l103.8 107.7v-102.1h14.8v137.7l-103.8-107.5v101.6h-14.8z"/>
			<path id="&lt;Compound Path&gt;" class="s0" d="m193 562.9h69v13.6h-54.1v39.2h52.5v13.6h-52.5v51.8h54.1v13.6h-69z"/>
			<path id="&lt;Compound Path&gt;" class="s0" d="m361.4 661.6l43-105.5 43.1 105.5 34.9-98.7h16.1l-51 138.6-43.1-106.1-43 106.1-51-138.6h16z"/>
			<path id="&lt;Compound Path&gt;" class="s0" d="m573.7 562.9h17.1l33.8 58.7 34-58.7h17.1l-43.6 75.2v56.6h-14.9v-56.6z"/>
			<path id="&lt;Compound Path&gt;" fill-rule="evenodd" class="s0" d="m847.3 629c0 37.9-31.3 67.9-69.3 67.9-38 0-69.4-30-69.4-67.9 0-37.8 31.4-68.4 69.4-68.4 38 0 69.3 30.6 69.3 68.4zm-123.9-0.2c0 29.7 24.4 54.5 54.6 54.5 30.1 0 54.5-24.8 54.5-54.5 0-29.9-24-54.5-54.5-54.5-30.6 0-54.6 24.6-54.6 54.5z"/>
			<path id="&lt;Compound Path&gt;" fill-rule="evenodd" class="s0" d="m918.5 694.7h-14.9v-131.8h19.3c25.2 0 48.7 6.7 48.7 36.3 0 20.3-12.9 34.7-33.4 36.4l42.4 59.1h-18.2l-40.3-57.9h-3.6zm0-70.8h4.5c16.8 0 33.8-3.1 33.8-23.6 0-21.6-16.1-23.7-33.9-23.7h-4.4z"/>
			<path id="&lt;Compound Path&gt;" class="s0" d="m1104.1 562.9h19.9l-62.5 61.3 64.6 70.5h-20.4l-54.6-60.5-3.7 3.7v56.8h-14.8v-131.8h14.8v56.4z"/>
		</g>
		<g id="&lt;Group&gt;">
			<path id="&lt;Compound Path&gt;" class="s1" d="m62 775.8v1.4c0 16.1-8.9 30.4-28.2 30.4-18.1 0-29.6-14.1-29.6-29.8 0-16.2 11.8-30.2 30.3-30.2 10.6 0 19.8 4.9 24.6 13.6l-10.7 5.3c-2.5-5.2-7.8-9.1-14.2-9.1-11.7 0-17.4 10.9-17.4 20.4 0 9.4 5.8 20 17.5 20 7.6 0 13.9-6.1 14.2-13h-13.2v-9z"/>
			<path id="&lt;Compound Path&gt;" class="s1" d="m123.3 758.7v12.6h19.2v9.7h-19.2v15.4h20v9.7h-32.2v-57h32.2v9.6z"/>
			<path id="&lt;Compound Path&gt;" class="s1" d="m194.4 747.6h8.7l32.7 39.8h0.2v-38.3h12.1v58.1h-8.7l-32.7-39.8h-0.2v38.7h-12.1z"/>
			<path id="&lt;Compound Path&gt;" fill-rule="evenodd" class="s1" d="m297.1 777.5c0-15.9 12.5-29.9 30.7-29.9 18.1 0 30.7 14 30.7 29.9 0 16.3-12.6 30.1-30.7 30.1-18.2 0-30.7-13.8-30.7-30.1zm12.5-0.4c0 8.6 7.9 19.5 18.2 19.5 10.3 0 18.1-10.9 18.1-19.5 0-9.3-7.5-18.6-18.1-18.6-10.6 0-18.2 9.3-18.2 18.6z"/>
			<path id="&lt;Compound Path&gt;" class="s1" d="m453.9 770.7h-0.2l-14.1 36.1h-4.2l-13.6-36.1h-0.1l-5.6 35.4h-12.1l10.4-58.5h8.6l15.3 37.5 14.6-37.5h8.7l9.4 58.5h-12.2z"/>
			<path id="&lt;Compound Path&gt;" class="s1" d="m531.5 758.7v12.6h19.3v9.7h-19.3v15.4h20v9.7h-32.1v-57h32.1v9.6z"/>
			<path id="&lt;Compound Path&gt;" class="s1" d="m678.1 764.2c-3.3-3.8-8.5-6-13.6-6-11.7 0-18.3 9.8-18.3 19.6 0 9.6 6.9 19.2 18.2 19.2 5.2 0 10.4-2.5 13.7-6.1v13.3c-4.5 2-9 3.4-14 3.4-17.5 0-30.4-13.8-30.4-29.6 0-16.1 12.4-30.4 30.6-30.4 4.9 0 9.6 1.2 13.8 3.3z"/>
			<path id="&lt;Compound Path&gt;" class="s1" d="m741.3 758.7v12.6h19.3v9.7h-19.3v15.4h20v9.7h-32.1v-57h32.1v9.6z"/>
			<path id="&lt;Compound Path&gt;" class="s1" d="m812.5 747.6h8.7l32.7 39.8h0.2v-38.3h12.1v58.1h-8.7l-32.7-39.8h-0.2v38.7h-12.1z"/>
			<path id="&lt;Compound Path&gt;" class="s1" d="m938.2 806.1h-12.1v-47.4h-12.5v-9.6h37.2v9.6h-12.6z"/>
			<path id="&lt;Compound Path&gt;" class="s1" d="m1010.4 758.7v12.6h19.3v9.7h-19.3v15.4h20v9.7h-32.1v-57h32.1v9.6z"/>
			<path id="&lt;Compound Path&gt;" fill-rule="evenodd" class="s1" d="m1123.6 806.1h-14.7l-15-23h-0.2v23h-12.1v-57h16.4c12.3 0 20.7 5 20.7 17.1 0 7.3-4.3 14.6-12.6 15.8zm-29.9-30.8h1.6c6.6 0 11.4-1.7 11.4-8.7 0-7.1-4.9-8.4-11.4-8.4h-1.6z"/>
		</g>
		<g id="&lt;Group&gt;">
			<g id="&lt;Group&gt;">
				<path id="&lt;Path&gt;" class="s2" d="m1054 379.6l-0.2-28.3h-45.9v39.3h-9v-59h-32.1v77.2h-13.7v22.7h100.9z"/>
			</g>
			<g id="&lt;Group&gt;">
				<path id="&lt;Path&gt;" class="s2" d="m1092.3 416.8v-30.1h-24.5v44.8h59.8v-14.7z"/>
			</g>
			<path id="&lt;Path&gt;" class="s3" d="m953.1 468.9h175.1v-21h-175.1z"/>
			<path id="&lt;Path&gt;" class="s4" d="m514 468.5h86.2v-51.4h-86.2z"/>
			<path id="&lt;Path&gt;" class="s5" d="m514 397.7h86.2v-18.5h-86.2z"/>
			<path id="&lt;Path&gt;" class="s5" d="m520.1 361.2h74v-18.5h-74z"/>
			<path id="&lt;Path&gt;" class="s1" d="m585.8 132.4h-3.4v-23.9h-0.9v-0.3h-5.8c0 0 0-10.5 0-12.5 0-2.1-1.5-6-1.5-6h1.4v-2.5h-3.4c0 0 0.2-0.8-0.8-3-0.6-1.2-2.9-3.3-4.9-5.1h-18.8c-2 1.8-4.3 3.9-4.9 5.1-1.1 2.2-0.9 3-0.9 3h-3.3v2.5h1.3c0 0-1.5 3.9-1.5 6 0 2 0 12.5 0 12.5h-5.8v0.3h-0.9v23.9h-3.3v48.1h57.4z"/>
			<path id="&lt;Path&gt;" class="s6" d="m562.6 48.8l-4.7-49.4h-0.7-0.2-0.8l-4.7 49.4-0.4 13h11.9z"/>
			<path id="&lt;Path&gt;" class="s4" d="m585.8 306.3v-104.2h-57.4v108h57.4v-3.8z"/>
			<path id="&lt;Path&gt;" class="s7" d="m129.9 334.8v33h44.2v-33z"/>
			<path id="&lt;Path&gt;" class="s7" d="m119.4 353.1h-43.4v14.7h43.4z"/>
			<path id="&lt;Path&gt;" class="s1" d="m61.1 400.4v-2h-30.4v26.9h-23.5v7.4h53.9z"/>
			<path id="&lt;Path&gt;" class="s1" d="m129.9 398.9h-10.5v-11.5h-43.4v45.3h98.1v-45.3h-44.2z"/>
			<path id="&lt;Path&gt;" class="s5" d="m7.2 468.4h166.9v-21.4h-166.9z"/>
			<g id="&lt;Group&gt;">
				<path id="&lt;Path&gt;" class="s8" d="m934.8 280.4h-65.9v13.4h65.9z"/>
			</g>
			<g id="&lt;Group&gt;">
				<path id="&lt;Path&gt;" class="s8" d="m868.9 322.8h65.9v-13.4h-65.9z"/>
			</g>
			<g id="&lt;Group&gt;">
				<path id="&lt;Path&gt;" class="s9" d="m868.9 468.8h65.9v-67.8h-65.9z"/>
			</g>
			<g id="&lt;Group&gt;">
				<path id="&lt;Path&gt;" class="s10" d="m868.9 387.7h65.9v-41.4h-65.9z"/>
			</g>
			<g id="&lt;Group&gt;">
				<path id="&lt;Path&gt;" class="s11" d="m934.8 241.4h5v-5.4h-5v-5h-65.9v5h-5.1v5.4h5.1v18.6h65.9z"/>
			</g>
			<path id="&lt;Path&gt;" class="s12" d="m237.2 229.3h-4.6v-17.9h-7.7v17.9h-4.6v9.2h16.9z"/>
			<path id="&lt;Path&gt;" class="s13" d="m216 260.4h-6.1v17h37.8v-17h-6.1v-12.1h-25.6z"/>
			<g id="&lt;Group&gt;">
				<path id="&lt;Path&gt;" class="s14" d="m201.9 368.7h53.8v-68.9h-53.8z"/>
			</g>
			<path id="&lt;Path&gt;" class="s12" d="m201.9 450h-7.3v18.4h68.4v-18.4h-7.3v-51.8h-53.8z"/>
			<g id="&lt;Group&gt;">
				<g id="&lt;Group&gt;">
					<path id="&lt;Path&gt;" class="s15" d="m380.3 440.8h108.5v-17h-108.5z"/>
				</g>
				<g id="&lt;Group&gt;">
					<path id="&lt;Path&gt;" class="s16" d="m395.2 351.3h-14.9v50.3h108.5v-17.8h-2.3v-37.3h-91.3z"/>
				</g>
				<path id="&lt;Path&gt;" class="s17" d="m436.5 282.2h-41.3v47.2h91.3v-66.2h-50z"/>
				<path id="&lt;Path&gt;" class="s18" d="m486.5 202.4h-50v39.4h50z"/>
				<path id="&lt;Path&gt;" class="s19" d="m380.3 468.4h108.5v-12.6h-108.5z"/>
			</g>
			<g id="&lt;Group&gt;">
				<path id="&lt;Path&gt;" class="s20" d="m284.8 352.4h70.6v-11h-0.1v-0.7h-70.5z"/>
				<path id="&lt;Path&gt;" class="s21" d="m284.8 223.6h65.9l-25-22.3h-40.9z"/>
				<path id="&lt;Path&gt;" class="s21" d="m287.2 166.9h-2.4v16.7h21.1z"/>
				<path id="&lt;Path&gt;" class="s20" d="m284.8 398.6h70.6v-26.1h-70.6z"/>
				<path id="&lt;Path&gt;" class="s22" d="m284.8 468.4h70.6v-50.2h-70.6z"/>
				<path id="&lt;Path&gt;" class="s23" d="m284.8 327.4h70.5v-59.2-13.9h-70.5z"/>
			</g>
			<path id="&lt;Path&gt;" class="s24" d="m812.2 242.1h-51.1v18.9h51.1z"/>
			<path id="&lt;Path&gt;" class="s25" d="m761.1 316.4h86.6v-37.2h-86.6z"/>
			<path id="&lt;Path&gt;" class="s23" d="m761.1 399.7h86.6v-62.4h-86.6z"/>
			<g id="&lt;Group&gt;">
				<path id="&lt;Path&gt;" class="s26" d="m761.1 468.7h86.6v-41.7h-86.6z"/>
			</g>
			<path id="&lt;Path&gt;" class="s27" d="m740.1 402.2h-116.9v14.5h116.9z"/>
			<path id="&lt;Path&gt;" class="s28" d="m740.1 309.7h-53.6v10.3h-15v-10.3h-48.3v64.6h116.9z"/>
			<path id="&lt;Path&gt;" class="s29" d="m740.1 468.7v-31.3h-116.9v31.3z"/>
			<path id="&lt;Path&gt;" class="s29" d="m686.5 192.7v94.7h53.6v-94.7z"/>
			<path id="&lt;Path&gt;" class="s29" d="m671.5 222.9h-48.3v64.5h48.3z"/>
		</g>
		<g id="&lt;Group&gt;">
			<path id="&lt;Compound Path&gt;" fill-rule="evenodd" class="s0" d="m1189.3 768.8c0 11.2-8.7 19.9-20.2 19.9-11.3 0-20.3-8.7-20.3-19.9 0-11 9-19.7 20.3-19.7 11.5 0 20.2 8.7 20.2 19.7zm-35.4 0c0 8.8 6.5 15.7 15.4 15.7 8.6 0 15-6.9 15-15.6 0-8.8-6.4-15.9-15.2-15.9-8.7 0-15.2 7.1-15.2 15.8zm12.1 10.3h-4.6v-19.7c1.8-0.3 4.4-0.6 7.6-0.6 3.7 0 5.4 0.6 6.9 1.4 1.1 0.9 1.9 2.5 1.9 4.4 0 2.1-1.7 3.8-4.1 4.5v0.3c1.9 0.7 3 2.2 3.6 4.8 0.6 3 1 4.2 1.5 4.9h-5c-0.6-0.7-0.9-2.5-1.5-4.8-0.4-2.1-1.6-3.1-4.1-3.1h-2.2zm0.1-11.2h2.2c2.5 0 4.6-0.8 4.6-2.9 0-1.8-1.4-3-4.2-3-1.2 0-2.1 0.1-2.6 0.3z"/>
		</g>
	</g>
</svg>