<svg xmlns="http://www.w3.org/2000/svg" xmlns:xlink="http://www.w3.org/1999/xlink" viewBox="0 0 150.47368 32.84211">
  <defs>
    <style>
      .a {
        fill: none;
      }

      .b {
        fill: #3284bf;
      }

      .c {
        clip-path: url(#a);
      }

      .d {
        fill: #fff;
      }

      .e {
        fill: #231f20;
      }
    </style>
    <clipPath id="a">
      <rect class="a" x="1.05263" y="0.89474" width="264.88" height="39.362"/>
    </clipPath>
  </defs>
  <title>UCLA Health logo</title>
  <rect class="b" x="1.05263" y="0.89474" width="67.416" height="31.18103"/>
  <g class="c">
    <path class="d" d="M10.837,19.41824a14.30337,14.30337,0,0,1-.033-1.646l.782-8.895h2.912l-.798,8.972c-.172,1.944.59,3.328,2.53,3.328a3.14373,3.14373,0,0,0,3.202-3.132l.828-9.168h2.909l-.803,9.054c-.327,3.485-2.639,6.098-6.38,6.098a4.96157,4.96157,0,0,1-5.149-4.611"/>
    <path class="d" d="M24.35263,16.40456c.38-4.267,3.262-7.811,8.237-7.811a6.79883,6.79883,0,0,1,3.826,1.11l-.332,3.525a4.30415,4.30415,0,0,0-3.77-1.756c-3.097,0-4.796,2.154-5.039,4.875-.236,2.653,1.134,4.805,4.136,4.805a5.57133,5.57133,0,0,0,4.151-1.828l-.324,3.621a8.34337,8.34337,0,0,1-4.058,1.116c-4.926,0-7.181-3.658-6.827-7.65705"/>
    <path class="d" d="M38.74033,8.87722h2.904l-1.058,12.079h4.16c.296,0,1.287-.016,1.555-.031-.014.148-.263,2.791-.263,2.791h-8.616Z"/>
    <path class="d" d="M54.61913,8.19527l-.202.002-7.952,15.519h3.085l1.118-2.355h5.603l.7,2.355h3.08Zm-.746,6.222a3.73806,3.73806,0,0,0,.216-.624l.046-.003a3.5713,3.5713,0,0,0,.11.63c.159.676,1.291,4.434,1.291,4.434h-3.667s1.965-4.34,2.004-4.437"/>
    <path class="e" d="M86.34414,25.58816v-.772c1.896-.011,2.478-.45,2.478-1.849v-6.544h-8.115v6.544c0,1.418.605,1.84,2.693,1.849v.772h-7.774v-.772c1.896-.011,2.477-.45,2.477-1.849V9.82418c0-1.4-.581-1.839-2.477-1.849v-.772h7.72v.772c-2.045.009-2.639.431-2.639,1.849v5.728h8.115v-5.728c0-1.4-.594-1.839-2.531-1.849v-.772h7.558v.772c-1.855.01-2.423.449-2.423,1.849v13.143c0,1.4.593,1.838,2.532,1.849v.772Z"/>
    <path class="e" d="M99.94312,25.91189c-3.228,0-5.853-2.953-5.853-6.58,0-3.629,2.625-6.581,5.853-6.581,3.403,0,5.61,2.52,5.636,6.528h-8.724v-.029c0,3.633,1.523,5.79,3.976,5.79a5.12333,5.12333,0,0,0,4.056-2.453l.529.454a5.963,5.963,0,0,1-5.473,2.871m-.055-12.389c-2.012,0-3.033,1.619-3.033,4.811v.073h6.122v-.073c0-3.192-1.039-4.811-3.089-4.811"/>
    <path class="e" d="M110.63161,25.91183c-1.854,0-3.725-.936-3.725-3.026,0-2.613,4.252-3.914,6.793-4.692.426-.13.811-.248,1.13-.35706l.048-.016v-2.557c0-1.285-1.534-1.741-2.846-1.741a4.48765,4.48765,0,0,0-2.57.684l-.155.098.181.034a1.28737,1.28737,0,0,1,1.099,1.356,1.49,1.49,0,0,1-2.98,0c0-1.596,2.064-2.944,4.507-2.944,3.708,0,5.152,1.022,5.152,3.644v6.518c0,1.329.318,1.581.907,1.581.698,0,1.007-1,1.022-1.886h.711c-.023,1.533-.741,3.141-2.703,3.141-1.461,0-1.879-.866-2.109-2.362l-.01-.061h-.066l-.018.047c-.656,1.732-2.111,2.539-4.368,2.539m4.157-7.351c-2.361.57306-5.118,2.022-5.118,4.218a1.89034,1.89034,0,0,0,1.958,2.145c1.822,0,3.249-1.735,3.249-3.95v-2.434Z"/>
    <path class="e" d="M119.83364,25.58816v-.772c1.547-.009,2.046-.306,2.046-1.203V9.33919c0-.897-.499-1.194-2.046-1.203v-.774l4.434-.157v16.408c0,.897.5,1.194,2.048,1.203v.772Z"/>
    <path class="e" d="M131.77362,25.91146c-2.29,0-3.267-.961-3.267-3.214V13.84652h-1.966v-.779c2.442-.221,2.811-.91,3.514-4.195h.839v4.101h3.744v.873h-3.744v9.821c0,.99.508,1.472,1.553,1.472.453,0,1.938-.29,1.938-2.981v-.493h.711v.386c0,2.741-.962,3.86-3.322,3.86"/>
    <path class="e" d="M145.50013,25.58816v-8.923c0-2.594-1.395-2.981-2.227-2.981-1.978,0-3.356,2.437-3.356,4.624v5.305c0,.897.512,1.194,2.101,1.203v.772h-6.402v-.772c1.428-.01,1.912-.318,1.912-1.203V9.33919c0-.885-.484-1.193-1.912-1.203v-.775l4.301-.156v8.239h.072l.019-.043a4.15569,4.15569,0,0,1,3.939-2.65c1.472,0,3.942.63,3.942,4.857v6.005c0,.885.484,1.193,1.912,1.203v.772Z"/>
  </g>
</svg>
